<svg xmlns="http://www.w3.org/2000/svg" xmlns:xlink="http://www.w3.org/1999/xlink" version="1.1" x="0px" y="0px" viewBox="0 0 100 100" enable-background="new 0 0 100 100" xml:space="preserve"><g><path class="logo-path" style="fill:white" d="M50.79,19c-17.883,0-32.105,13.734-32.105,30.676L18.508,84l6.058-6.025l5.255,5.834l5.262-5.834l5.265,5.834l5.267-5.834   l4.967,5.502l4.968-5.502l5.167,5.723l5.168-5.723l5.169,5.724l5.169-5.724L82.665,84L83,80.5V49.676C83,32.734,68.673,19,50.79,19   z M38.018,52.75c-3.176,0-5.75-2.574-5.75-5.75s2.574-5.75,5.75-5.75s5.75,2.574,5.75,5.75S41.193,52.75,38.018,52.75z    M63.018,52.75c-3.176,0-5.75-2.574-5.75-5.75s2.574-5.75,5.75-5.75s5.75,2.574,5.75,5.75S66.193,52.75,63.018,52.75z"/></g>
<style>
.logo-path{
    fill:white
}
</style>
</svg>